# xmcd
#
# Track frame offsets:
# 150
# 18012
# 33190
# 50645
# 67524
# 84099
# 101493
# 115623
# 134322
# 151569
# 166732
# 183566
# 201331
# 217469
#
# Disc length: 3089 seconds
#
#
# Revision: 2
# Processed by: cddbd v1.5.1PL2 Copyright (c) Steve Scherf et al.
# Submitted via: FreeRIP 2.945 
#
DISCID=a80c0f0e
DTITLE=Mato Grosso and Mathias - Um Século Sem Ti - Matogrosso and Mathias Um Século Sem Ti
DYEAR=2006
DGENRE=sertanejo
TTITLE0=Um Século Sem Ti
TTITLE1=Chorei Por Ela
TTITLE2=Só Quem Ama Entende
TTITLE3=Eu Me Perdi
TTITLE4=Aos Tancos e Barrancos
TTITLE5=Vazio da Solidão
TTITLE6=Coisa Mandada
TTITLE7=Seu Corpo Em Meu Corpo
TTITLE8=Vem Ficar Comigo
TTITLE9=Mulheres do Brasil
TTITLE10=Linha de Pipa
TTITLE11=Caiu, Quebrou
TTITLE12=O Vôo do Condor
TTITLE13=Depois das Seis
EXTD=
EXTT0=
EXTT1=
EXTT2=
EXTT3=
EXTT4=
EXTT5=
EXTT6=
EXTT7=
EXTT8=
EXTT9=
EXTT10=
EXTT11=
EXTT12=
EXTT13=
PLAYORDER=
